# xmcd
#
# Track frame offsets: 
#        150
#        15407
#        48166
#        76255
#        90076
#        103651
#        131366
#        153603
#        173831
#        187498
#        201346
#        211624
#        224081
#
# Disc length: 3257 seconds
#
# Revision: 2
# Processed by: cddbd v1.5.2PL0 Copyright (c) Steve Scherf et al.
# Submitted via: ExactAudioCopy v1.1
#
DISCID=ab0cb70d
DTITLE=The Ebonys - The Ebonys
DYEAR=1973
DGENRE=R&B
TTITLE0=Hook Up And Get Down
TTITLE1=It's Forever
TTITLE2=Life In The Country
TTITLE3=Sexy Ways
TTITLE4=I'm So Glad I'm Me
TTITLE5=I'll Try
TTITLE6=Nation Time
TTITLE7=I Believe
TTITLE8=You're The Reason Why
TTITLE9=Do You Like The Way Love
TTITLE10=Determination (mono)
TTITLE11=Do It (mono)
TTITLE12=It's Forever (single edit)
EXTD=
EXTT0=
EXTT1=
EXTT2=
EXTT3=
EXTT4=
EXTT5=
EXTT6=
EXTT7=
EXTT8=
EXTT9=
EXTT10=
EXTT11=
EXTT12=
PLAYORDER=
